<?xml version="1.0" encoding="utf-8"?>
<!-- Generator: Adobe Illustrator 27.4.0, SVG Export Plug-In . SVG Version: 6.00 Build 0)  -->
<svg version="1.1" id="katman_1" xmlns="http://www.w3.org/2000/svg" xmlns:xlink="http://www.w3.org/1999/xlink" x="0px" y="0px"
	 width="512px" height="512px" viewBox="0 0 512 512" style="enable-background:new 0 0 512 512;" xml:space="preserve">
<style type="text/css">
	.st0{fill:#FFFFFF;}
</style>
<g>
	<path class="st0" d="M192,138.5c0-4.4-3.6-8-8-8h-64c-4.4,0-8,3.6-8,8s3.6,8,8,8h64C188.4,146.5,192,142.9,192,138.5z"/>
	<path class="st0" d="M136,178.5H72c-4.4,0-8,3.6-8,8s3.6,8,8,8h64c4.4,0,8-3.6,8-8S140.4,178.5,136,178.5z"/>
	<path class="st0" d="M72,146.5h16c4.4,0,8-3.6,8-8s-3.6-8-8-8H72c-4.4,0-8,3.6-8,8S67.6,146.5,72,146.5z"/>
	<path class="st0" d="M192,186.5c0-4.4-3.6-8-8-8h-16c-4.4,0-8,3.6-8,8s3.6,8,8,8h16C188.4,194.5,192,190.9,192,186.5z"/>
	<path class="st0" d="M104,226.5H72c-4.4,0-8,3.6-8,8s3.6,8,8,8h32c4.4,0,8-3.6,8-8S108.4,226.5,104,226.5z"/>
	<path class="st0" d="M72,98.5h48c4.4,0,8-3.6,8-8s-3.6-8-8-8H72c-4.4,0-8,3.6-8,8S67.6,98.5,72,98.5z"/>
	<path class="st0" d="M429.7,20.8c-1.5-1.5-3.5-2.3-5.7-2.3H312c-22.1,0-40,17.9-40,40v152h-32v-120c0-2.1-0.8-4.2-2.3-5.7l-64-64
		c-1.5-1.5-3.5-2.3-5.7-2.3H56c-22.1,0-40,17.9-40,40v208c0,22.1,17.9,40,40,40h88v152c0,22.1,17.9,40,40,40h144
		c22.1,0,40-17.9,40-40v-152h88c22.1,0,40-17.9,40-40v-176c0-2.1-0.8-4.2-2.3-5.7L429.7,20.8z M432,45.8l36.7,36.7H456
		c-13.2,0-24-10.8-24-24V45.8z M176,45.8l36.7,36.7H200c-13.2,0-24-10.8-24-24V45.8z M144,250.5v40H56c-13.2,0-24-10.8-24-24v-208
		c0-13.2,10.8-24,24-24h104v24c0,22.1,17.9,40,40,40h24v112h-40C161.9,210.5,144,228.4,144,250.5z M352,458.5c0,13.2-10.8,24-24,24
		H184c-13.2,0-24-10.8-24-24v-208c0-13.2,10.8-24,24-24h104v24c0,22.1,17.9,40,40,40h24V458.5z M304,250.5v-12.7l36.7,36.7H328
		C314.8,274.5,304,263.7,304,250.5z M480,266.5c0,13.2-10.8,24-24,24h-88v-8c0-2.1-0.8-4.2-2.3-5.7l-64-64c-1.5-1.5-3.5-2.3-5.7-2.3
		h-8v-152c0-13.2,10.8-24,24-24h104v24c0,22.1,17.9,40,40,40h24V266.5z"/>
	<path class="st0" d="M440,130.5h-64c-4.4,0-8,3.6-8,8s3.6,8,8,8h64c4.4,0,8-3.6,8-8S444.4,130.5,440,130.5z"/>
	<path class="st0" d="M400,186.5c0-4.4-3.6-8-8-8h-64c-4.4,0-8,3.6-8,8s3.6,8,8,8h64C396.4,194.5,400,190.9,400,186.5z"/>
	<path class="st0" d="M440,226.5h-64c-4.4,0-8,3.6-8,8s3.6,8,8,8h64c4.4,0,8-3.6,8-8S444.4,226.5,440,226.5z"/>
	<path class="st0" d="M328,146.5h16c4.4,0,8-3.6,8-8s-3.6-8-8-8h-16c-4.4,0-8,3.6-8,8S323.6,146.5,328,146.5z"/>
	<path class="st0" d="M440,178.5h-16c-4.4,0-8,3.6-8,8s3.6,8,8,8h16c4.4,0,8-3.6,8-8S444.4,178.5,440,178.5z"/>
	<path class="st0" d="M328,98.5h48c4.4,0,8-3.6,8-8s-3.6-8-8-8h-48c-4.4,0-8,3.6-8,8S323.6,98.5,328,98.5z"/>
	<circle class="st0" cx="224" cy="354.5" r="8"/>
	<circle class="st0" cx="256" cy="354.5" r="8"/>
	<circle class="st0" cx="288" cy="354.5" r="8"/>
	<path class="st0" d="M56,338.5c-4.4,0-8,3.6-8,8v48c0,4.4,3.6,8,8,8h48c4.4,0,8-3.6,8-8s-3.6-8-8-8H64v-40
		C64,342.1,60.4,338.5,56,338.5z"/>
	<path class="st0" d="M456,402.5c4.4,0,8-3.6,8-8v-48c0-4.4-3.6-8-8-8s-8,3.6-8,8v40h-40c-4.4,0-8,3.6-8,8s3.6,8,8,8H456z"/>
</g>
</svg>
